# Blender 3.1.2
# www.blender.org
mtllib Cub_E.mtl
o Cube
v 1.000000 1.000000 -1.000000
v 1.000000 -1.000000 -1.000000
v 1.000000 1.000000 1.000000
v 1.000000 -1.000000 1.000000
v -1.000000 1.000000 -1.000000
v -1.000000 -1.000000 -1.000000
v -1.000000 1.000000 1.000000
v -1.000000 -1.000000 1.000000
vn -0.0000 1.0000 -0.0000
vn -0.0000 -0.0000 1.0000
vn -1.0000 -0.0000 -0.0000
vn -0.0000 -1.0000 -0.0000
vn 1.0000 -0.0000 -0.0000
vn -0.0000 -0.0000 -1.0000
vt 0.750000 1.000000
vt 1.000000 0.750000
vt 0.000000 0.750000
vt 0.750000 0.250000
vt 1.000000 0.500000
vt 0.000000 0.500000
vt 0.750000 0.750000
vt 0.750000 0.500000
vt 0.500000 1.000000
vt 0.250000 0.750000
vt 0.500000 0.250000
vt 0.250000 0.500000
vt 0.500000 0.750000
vt 0.500000 0.500000
s 0
usemtl Material
f 1/1/1 5/9/1 7/13/1 3/7/1
f 4/8/2 3/7/2 7/13/2 8/14/2
f 8/14/3 7/13/3 5/10/3 6/12/3
f 6/11/4 2/4/4 4/8/4 8/14/4
f 2/5/5 1/2/5 3/7/5 4/8/5
f 6/12/6 5/10/6 1/3/6 2/6/6
o Cube.001
v -0.500000 -1.000000 -1.000000
v -0.500000 -1.000000 -1.500000
v 0.500000 -1.000000 -1.000000
v 0.500000 -1.000000 -1.500000
v -0.500000 -0.200000 -1.000000
v -0.500000 -0.200000 -1.500000
v 0.500000 -0.200000 -1.000000
v 0.500000 -0.200000 -1.500000
v -1.000000 0.000000 1.000000
v 1.000000 0.000000 1.000000
v -1.000000 0.000000 -1.000000
v 1.000000 0.000000 -1.000000
vn -0.0000 -1.0000 -0.0000
vn 1.0000 -0.0000 -0.0000
vn -0.0000 1.0000 -0.0000
vn -1.0000 -0.0000 -0.0000
vn -0.0000 -0.0000 -1.0000
vt 0.562500 0.187500
vt 0.250000 0.275000
vt 0.687500 0.187500
vt 0.187500 0.275000
vt 0.562500 0.250000
vt 0.000000 0.275000
vt 0.687500 0.250000
vt 0.062500 0.275000
vt 0.187500 0.437500
vt 0.250000 0.375000
vt 0.187500 0.375000
vt 0.000000 0.375000
vt 0.062500 0.437500
vt 0.062500 0.375000
vt 0.000000 0.000000
vt 1.000000 0.000000
vt 0.000000 1.000000
vt 1.000000 1.000000
s 0
usemtl Material.001
f 9/15/7 10/17/7 12/21/7 11/19/7
f 11/20/8 12/22/8 16/28/8 15/26/8
f 15/27/9 16/28/9 14/25/9 13/23/9
f 13/24/10 14/25/10 10/18/10 9/16/10
f 17/29/9 18/30/9 20/32/9 19/31/9
f 16/28/11 12/22/11 10/18/11 14/25/11
o 平面
v -0.400000 -1.000000 -1.300000
v -0.200000 -1.000000 -1.300000
v -0.400000 -1.000000 -1.500000
v -0.200000 -1.000000 -1.500000
v -0.300000 -1.200000 -1.400000
vn -0.0000 0.4472 -0.8944
vn -0.0000 0.4472 0.8944
vn 0.8944 0.4472 -0.0000
vn -0.8944 0.4472 -0.0000
vt 0.000000 0.125000
vt 0.125000 0.125000
vt 0.000000 0.000000
vt 0.125000 0.000000
vt 0.062500 0.062500
s 0
f 21/33/12 22/34/12 25/37/12
f 23/35/13 25/37/13 24/36/13
f 25/37/14 23/35/14 21/33/14
f 24/36/15 25/37/15 22/34/15
o 平面.001
v 0.200000 -1.000000 -1.300000
v 0.400000 -1.000000 -1.300000
v 0.200000 -1.000000 -1.500000
v 0.400000 -1.000000 -1.500000
v 0.300000 -1.200000 -1.400000
vn -0.0000 0.4472 -0.8944
vn -0.0000 0.4472 0.8944
vn 0.8944 0.4472 -0.0000
vn -0.8944 0.4472 -0.0000
vt 0.125000 0.125000
vt 0.250000 0.125000
vt 0.125000 0.000000
vt 0.250000 0.000000
vt 0.187500 0.062500
s 0
f 26/38/16 27/39/16 30/42/16
f 28/40/17 30/42/17 29/41/17
f 30/42/18 28/40/18 26/38/18
f 29/41/19 30/42/19 27/39/19
o 平面.002
v 0.500000 -1.000000 1.000000
v 0.700000 -1.000000 1.000000
v 0.500000 -1.000000 0.800000
v 0.700000 -1.000000 0.800000
v 0.600000 -1.200000 0.900000
vn -0.0000 0.4472 -0.8944
vn -0.0000 0.4472 0.8944
vn 0.8944 0.4472 -0.0000
vn -0.8944 0.4472 -0.0000
vt 0.375000 0.125000
vt 0.500000 0.125000
vt 0.375000 0.000000
vt 0.500000 0.000000
vt 0.437500 0.062500
s 0
f 31/43/20 32/44/20 35/47/20
f 33/45/21 35/47/21 34/46/21
f 35/47/22 33/45/22 31/43/22
f 34/46/23 35/47/23 32/44/23
o 平面.003
v -0.700000 -1.000000 1.000000
v -0.500000 -1.000000 1.000000
v -0.700000 -1.000000 0.800000
v -0.500000 -1.000000 0.800000
v -0.600000 -1.200000 0.900000
vn -0.0000 0.4472 -0.8944
vn -0.0000 0.4472 0.8944
vn 0.8944 0.4472 -0.0000
vn -0.8944 0.4472 -0.0000
vt 0.250000 0.125000
vt 0.375000 0.125000
vt 0.250000 0.000000
vt 0.375000 0.000000
vt 0.312500 0.062500
s 0
f 36/48/24 37/49/24 40/52/24
f 38/50/25 40/52/25 39/51/25
f 40/52/26 38/50/26 36/48/26
f 39/51/27 40/52/27 37/49/27
