# Blender v3.1.2 OBJ File: ''
# www.blender.org
mtllib UnownFoot.mtl
o Cube
v 1.000000 1.300000 -1.000000
v -1.000000 1.300000 -1.000000
v 1.000000 -0.500000 1.000000
v 1.000000 1.300000 -0.700000
v 1.000000 -0.500000 -0.700000
v -1.000000 1.300000 -0.700000
v -1.000000 -0.500000 1.000000
v -1.000000 -0.500000 -0.700000
v 0.700000 -1.000000 -0.700000
v 1.000000 -0.700000 -1.000000
v 0.700000 -1.000000 0.700000
v 1.000000 -0.700000 1.000000
v -1.000000 -0.700000 -1.000000
v -0.700000 -1.000000 -0.700000
v -0.700000 -1.000000 0.700000
v -1.000000 -0.700000 1.000000
vt 0.625000 0.500000
vt 0.875000 0.500000
vt 0.875000 0.563187
vt 0.625000 0.561763
vt 0.411887 0.000000
vt 0.436478 0.000000
vt 0.426793 0.192795
vt 0.625000 0.186813
vt 0.625000 0.250000
vt 0.412500 0.250000
vt 0.412229 0.750000
vt 0.437048 0.750000
vt 0.436478 1.000000
vt 0.411887 1.000000
vt 0.162500 0.537500
vt 0.337500 0.537500
vt 0.337500 0.712500
vt 0.162500 0.712500
vt 0.412500 0.500000
vt 0.434199 0.552648
vt 0.875000 0.750000
vt 0.625000 0.750000
vt 0.625000 1.000000
vt 0.125000 0.750000
vt 0.125000 0.500000
vt 0.375000 0.500000
vt 0.375000 0.750000
vn 0.0000 1.0000 0.0000
vn -1.0000 -0.0000 0.0000
vn 0.0000 0.0000 1.0000
vn 0.0000 -1.0000 0.0000
vn 1.0000 0.0000 0.0000
vn -0.7071 -0.7071 0.0000
vn 0.0000 -0.7071 -0.7071
vn 0.0000 -0.7071 0.7071
vn 0.7071 -0.7071 0.0000
vn 0.0000 0.0000 -1.0000
usemtl Material
s off
f 1/1/1 2/2/1 6/3/1 4/4/1
f 16/5/2 7/6/2 8/7/2 6/8/2 2/9/2 13/10/2
f 12/11/3 3/12/3 7/13/3 16/14/3
f 14/15/4 9/16/4 11/17/4 15/18/4
f 10/19/5 1/1/5 4/4/5 5/20/5 3/12/5 12/11/5
f 4/4/3 6/3/3 8/21/3 5/22/3
f 7/13/1 3/12/1 5/22/1 8/23/1
f 14/15/6 15/18/6 16/24/6 13/25/6
f 9/16/7 14/15/7 13/25/7 10/26/7
f 15/18/8 11/17/8 12/27/8 16/24/8
f 11/17/9 9/16/9 10/19/9 12/11/9
f 13/10/10 2/9/10 1/1/10 10/19/10
o çƒ
v 0.000000 0.866025 -0.500000
v 0.000000 0.500000 -0.866025
v 0.000000 -0.000000 -1.000000
v 0.000000 -0.866025 -0.500000
v 0.250000 0.866025 -0.433013
v 0.433013 0.500000 -0.750000
v 0.500000 -0.000000 -0.866025
v 0.433013 -0.500000 -0.750000
v 0.250000 -0.866025 -0.433013
v 0.433013 0.866025 -0.250000
v 0.750000 0.500000 -0.433013
v 0.866026 -0.000000 -0.500000
v 0.750000 -0.500000 -0.433013
v 0.433013 -0.866025 -0.250000
v 0.500000 0.866025 0.000000
v 0.866026 0.500000 0.000000
v 1.000000 -0.000000 0.000000
v 0.866026 -0.500000 0.000000
v 0.500000 -0.866025 0.000000
v 0.433013 0.866025 0.250000
v 0.750000 0.500000 0.433013
v 0.866025 -0.000000 0.500000
v 0.750000 -0.500000 0.433013
v 0.433013 -0.866025 0.250000
v 0.250000 0.866025 0.433013
v 0.433013 0.500000 0.750000
v 0.500000 -0.000000 0.866025
v 0.433013 -0.500000 0.750000
v 0.250000 -0.866025 0.433013
v -0.000000 1.000000 0.000000
v 0.000000 0.866025 0.500000
v -0.000000 0.500000 0.866026
v 0.000000 -0.000000 1.000000
v -0.000000 -0.500000 0.866026
v -0.000000 -0.866025 0.500000
v -0.250000 0.866025 0.433013
v -0.433013 0.500000 0.750000
v -0.500000 -0.000000 0.866025
v -0.433013 -0.500000 0.750000
v -0.250000 -0.866025 0.433013
v 0.000000 -1.000000 0.000000
v -0.433013 0.866025 0.250000
v -0.750000 0.500000 0.433013
v -0.866025 -0.000000 0.500000
v -0.750000 -0.500000 0.433013
v -0.433013 -0.866025 0.250000
v -0.500000 0.866025 0.000000
v -0.866025 0.500000 0.000000
v -1.000000 -0.000000 0.000000
v -0.866025 -0.500000 0.000000
v -0.500000 -0.866025 0.000000
v -0.433013 0.866025 -0.250000
v -0.750000 0.500000 -0.433013
v -0.866025 -0.000000 -0.500000
v -0.750000 -0.500000 -0.433013
v -0.433013 -0.866025 -0.250000
v -0.250000 0.866025 -0.433013
v -0.433013 0.500000 -0.750000
v -0.500000 -0.000000 -0.866025
v -0.433013 -0.500000 -0.750000
v -0.250000 -0.866025 -0.433013
v 0.000000 -0.500000 -0.866025
vt 0.750000 0.666667
vt 0.750000 0.833333
vt 0.666667 0.833333
vt 0.666667 0.666667
vt 0.750000 0.166667
vt 0.750000 0.333333
vt 0.666667 0.333333
vt 0.666667 0.166667
vt 0.750000 0.500000
vt 0.666667 0.500000
vt 0.708333 1.000000
vt 0.708333 0.000000
vt 0.583333 0.333333
vt 0.583333 0.166667
vt 0.583333 0.666667
vt 0.583333 0.500000
vt 0.625000 1.000000
vt 0.583333 0.833333
vt 0.625000 0.000000
vt 0.500000 0.333333
vt 0.500000 0.166667
vt 0.500000 0.666667
vt 0.500000 0.500000
vt 0.541667 1.000000
vt 0.500000 0.833333
vt 0.541667 0.000000
vt 0.416667 0.666667
vt 0.416667 0.500000
vt 0.458333 1.000000
vt 0.416667 0.833333
vt 0.458333 0.000000
vt 0.416667 0.166667
vt 0.416667 0.333333
vt 0.375000 1.000000
vt 0.333333 0.833333
vt 0.375000 0.000000
vt 0.333333 0.166667
vt 0.333333 0.500000
vt 0.333333 0.333333
vt 0.333333 0.666667
vt 0.291667 0.000000
vt 0.250000 0.166667
vt 0.250000 0.500000
vt 0.250000 0.333333
vt 0.250000 0.833333
vt 0.250000 0.666667
vt 0.291667 1.000000
vt 0.208333 0.000000
vt 0.166667 0.166667
vt 0.166667 0.500000
vt 0.166667 0.333333
vt 0.166667 0.833333
vt 0.166667 0.666667
vt 0.208333 1.000000
vt 0.125000 0.000000
vt 0.083333 0.166667
vt 0.083333 0.500000
vt 0.083333 0.333333
vt 0.083333 0.833333
vt 0.083333 0.666667
vt 0.125000 1.000000
vt 0.000000 0.500000
vt 0.000000 0.333333
vt 0.000000 0.833333
vt 0.000000 0.666667
vt 0.000000 0.166667
vt 0.041667 1.000000
vt 0.041667 0.000000
vt 1.000000 0.666667
vt 1.000000 0.833333
vt 0.916667 0.833333
vt 0.916667 0.666667
vt 1.000000 0.166667
vt 1.000000 0.333333
vt 0.916667 0.333333
vt 0.916667 0.166667
vt 1.000000 0.500000
vt 0.916667 0.500000
vt 0.958333 1.000000
vt 0.958333 0.000000
vt 0.833333 0.333333
vt 0.833333 0.166667
vt 0.833333 0.666667
vt 0.833333 0.500000
vt 0.875000 1.000000
vt 0.833333 0.833333
vt 0.875000 0.000000
vt 0.791667 1.000000
vt 0.791667 0.000000
vn 0.1862 0.6947 -0.6947
vn 0.1862 -0.6947 -0.6947
vn 0.2506 0.2506 -0.9351
vn 0.0692 0.9636 -0.2582
vn 0.0692 -0.9636 -0.2582
vn 0.2506 -0.2506 -0.9351
vn 0.5086 -0.6947 -0.5086
vn 0.6846 0.2506 -0.6846
vn 0.1890 0.9636 -0.1890
vn 0.1890 -0.9636 -0.1890
vn 0.6846 -0.2506 -0.6846
vn 0.5086 0.6947 -0.5086
vn 0.6947 -0.6947 -0.1862
vn 0.9351 0.2506 -0.2506
vn 0.2582 0.9636 -0.0692
vn 0.2582 -0.9636 -0.0692
vn 0.9351 -0.2506 -0.2506
vn 0.6947 0.6947 -0.1862
vn 0.9351 0.2506 0.2506
vn 0.2582 0.9636 0.0692
vn 0.2582 -0.9636 0.0692
vn 0.9351 -0.2506 0.2506
vn 0.6947 0.6947 0.1862
vn 0.6947 -0.6947 0.1862
vn 0.1890 0.9636 0.1890
vn 0.1890 -0.9636 0.1890
vn 0.6846 -0.2506 0.6846
vn 0.5086 0.6947 0.5086
vn 0.5086 -0.6947 0.5086
vn 0.6846 0.2506 0.6846
vn 0.0692 -0.9636 0.2582
vn 0.2506 -0.2506 0.9351
vn 0.1862 0.6947 0.6947
vn 0.1862 -0.6947 0.6947
vn 0.2506 0.2506 0.9351
vn 0.0692 0.9636 0.2582
vn -0.0692 -0.9636 0.2582
vn -0.2506 -0.2506 0.9351
vn -0.1862 0.6947 0.6947
vn -0.1862 -0.6947 0.6947
vn -0.2506 0.2506 0.9351
vn -0.0692 0.9636 0.2582
vn -0.1890 -0.9636 0.1890
vn -0.6846 -0.2506 0.6846
vn -0.5086 0.6947 0.5086
vn -0.5086 -0.6947 0.5086
vn -0.6846 0.2506 0.6846
vn -0.1890 0.9636 0.1890
vn -0.9351 -0.2506 0.2506
vn -0.6947 0.6947 0.1862
vn -0.6947 -0.6947 0.1862
vn -0.9351 0.2506 0.2506
vn -0.2582 0.9636 0.0692
vn -0.2582 -0.9636 0.0692
vn -0.6947 0.6947 -0.1862
vn -0.6947 -0.6947 -0.1862
vn -0.9351 0.2506 -0.2506
vn -0.2582 0.9636 -0.0692
vn -0.2582 -0.9636 -0.0692
vn -0.9351 -0.2506 -0.2506
vn -0.5086 -0.6947 -0.5086
vn -0.6846 0.2506 -0.6846
vn -0.1890 0.9636 -0.1890
vn -0.1890 -0.9636 -0.1890
vn -0.6846 -0.2506 -0.6846
vn -0.5086 0.6947 -0.5086
vn -0.1862 -0.6947 -0.6947
vn -0.2506 0.2506 -0.9351
vn -0.0692 0.9636 -0.2582
vn -0.0692 -0.9636 -0.2582
vn -0.2506 -0.2506 -0.9351
vn -0.1862 0.6947 -0.6947
usemtl None
s off
f 18/28/11 17/29/11 21/30/11 22/31/11
f 20/32/12 78/33/12 24/34/12 25/35/12
f 19/36/13 18/28/13 22/31/13 23/37/13
f 17/29/14 46/38/14 21/30/14
f 57/39/15 20/32/15 25/35/15
f 78/33/16 19/36/16 23/37/16 24/34/16
f 25/35/17 24/34/17 29/40/17 30/41/17
f 23/37/18 22/31/18 27/42/18 28/43/18
f 21/30/19 46/44/19 26/45/19
f 57/46/20 25/35/20 30/41/20
f 24/34/21 23/37/21 28/43/21 29/40/21
f 22/31/22 21/30/22 26/45/22 27/42/22
f 30/41/23 29/40/23 34/47/23 35/48/23
f 28/43/24 27/42/24 32/49/24 33/50/24
f 26/45/25 46/51/25 31/52/25
f 57/53/26 30/41/26 35/48/26
f 29/40/27 28/43/27 33/50/27 34/47/27
f 27/42/28 26/45/28 31/52/28 32/49/28
f 33/50/29 32/49/29 37/54/29 38/55/29
f 31/52/30 46/56/30 36/57/30
f 57/58/31 35/48/31 40/59/31
f 34/47/32 33/50/32 38/55/32 39/60/32
f 32/49/33 31/52/33 36/57/33 37/54/33
f 35/48/34 34/47/34 39/60/34 40/59/34
f 36/57/35 46/61/35 41/62/35
f 57/63/36 40/59/36 45/64/36
f 39/60/37 38/55/37 43/65/37 44/66/37
f 37/54/38 36/57/38 41/62/38 42/67/38
f 40/59/39 39/60/39 44/66/39 45/64/39
f 38/55/40 37/54/40 42/67/40 43/65/40
f 57/68/41 45/64/41 51/69/41
f 44/66/42 43/65/42 49/70/42 50/71/42
f 42/67/43 41/62/43 47/72/43 48/73/43
f 45/64/44 44/66/44 50/71/44 51/69/44
f 43/65/45 42/67/45 48/73/45 49/70/45
f 41/62/46 46/74/46 47/72/46
f 57/75/47 51/69/47 56/76/47
f 50/71/48 49/70/48 54/77/48 55/78/48
f 48/73/49 47/72/49 52/79/49 53/80/49
f 51/69/50 50/71/50 55/78/50 56/76/50
f 49/70/51 48/73/51 53/80/51 54/77/51
f 47/72/52 46/81/52 52/79/52
f 57/82/53 56/76/53 62/83/53
f 55/78/54 54/77/54 60/84/54 61/85/54
f 53/80/55 52/79/55 58/86/55 59/87/55
f 56/76/56 55/78/56 61/85/56 62/83/56
f 54/77/57 53/80/57 59/87/57 60/84/57
f 52/79/58 46/88/58 58/86/58
f 61/85/59 60/84/59 65/89/59 66/90/59
f 59/87/60 58/86/60 63/91/60 64/92/60
f 62/83/61 61/85/61 66/90/61 67/93/61
f 60/84/62 59/87/62 64/92/62 65/89/62
f 58/86/63 46/94/63 63/91/63
f 57/95/64 62/83/64 67/93/64
f 64/96/65 63/97/65 68/98/65 69/99/65
f 67/100/66 66/101/66 71/102/66 72/103/66
f 65/104/67 64/96/67 69/99/67 70/105/67
f 63/97/68 46/106/68 68/98/68
f 57/107/69 67/100/69 72/103/69
f 66/101/70 65/104/70 70/105/70 71/102/70
f 72/103/71 71/102/71 76/108/71 77/109/71
f 70/105/72 69/99/72 74/110/72 75/111/72
f 68/98/73 46/112/73 73/113/73
f 57/114/74 72/103/74 77/109/74
f 71/102/75 70/105/75 75/111/75 76/108/75
f 69/99/76 68/98/76 73/113/76 74/110/76
f 77/109/77 76/108/77 78/33/77 20/32/77
f 75/111/78 74/110/78 18/28/78 19/36/78
f 73/113/79 46/115/79 17/29/79
f 57/116/80 77/109/80 20/32/80
f 76/108/81 75/111/81 19/36/81 78/33/81
f 74/110/82 73/113/82 17/29/82 18/28/82
